<?xml version="1.0" encoding="UTF-8" standalone="no"?>
<!-- Created with Inkscape (http://www.inkscape.org/) -->

<svg
   width="15.523796mm"
   height="10.718521mm"
   viewBox="0 0 15.523796 10.718521"
   version="1.1"
   id="svg5"
   xml:space="preserve"
   inkscape:version="1.2.2 (732a01da63, 2022-12-09)"
   sodipodi:docname="btn.svg"
   xmlns:inkscape="http://www.inkscape.org/namespaces/inkscape"
   xmlns:sodipodi="http://sodipodi.sourceforge.net/DTD/sodipodi-0.dtd"
   xmlns="http://www.w3.org/2000/svg"
   xmlns:svg="http://www.w3.org/2000/svg"><sodipodi:namedview
     id="namedview7"
     pagecolor="#ffffff"
     bordercolor="#666666"
     borderopacity="1.0"
     inkscape:showpageshadow="2"
     inkscape:pageopacity="0.0"
     inkscape:pagecheckerboard="0"
     inkscape:deskcolor="#d1d1d1"
     inkscape:document-units="mm"
     showgrid="false"
     inkscape:zoom="0.76078844"
     inkscape:cx="242.51157"
     inkscape:cy="536.28575"
     inkscape:window-width="2560"
     inkscape:window-height="1009"
     inkscape:window-x="1912"
     inkscape:window-y="-8"
     inkscape:window-maximized="1"
     inkscape:current-layer="layer1" /><defs
     id="defs2" /><g
     inkscape:label="Warstwa 1"
     inkscape:groupmode="layer"
     id="layer1"
     transform="translate(-120.6394,-143.14074)"><g
       id="g1045"
       transform="translate(56.248517,120.24801)"><g
         id="g1004"
         transform="translate(37.211944,-1.0466171)"><path
           style="fill:#ffffff;stroke:#000000;stroke-width:0.264583px;stroke-linecap:butt;stroke-linejoin:miter;stroke-opacity:1"
           d="m 40.483623,24.176439 c 0,0 0.760338,-0.04954 1.162455,-0.03867 0.402113,0.01087 0.945512,0.206491 0.923776,0.891173 -0.02172,0.684683 -0.02172,8.249614 -0.02172,8.673054 0,0.423441 -0.166793,0.716875 -0.69555,0.749479 -0.528756,0.03261 -13.269796,0.09781 -13.715383,0.06521 -0.445588,-0.0326 -0.825966,-0.260832 -0.825966,-0.673815 0,-0.412983 0,-8.553096 0.01087,-9.118231 0.01087,-0.565134 0.593164,-0.64121 0.923779,-0.652078 0.330613,-0.01087 12.237757,0.103876 12.237757,0.103876"
           id="path996" /><path
           style="fill:none;stroke:#000000;stroke-width:0.264583px;stroke-linecap:butt;stroke-linejoin:miter;stroke-opacity:1"
           d="m 28.71048,29.432853 v -4.395715 c 0,0 0.03074,-0.891439 0.691634,-0.906809 0.660894,-0.01537 11.081509,0.04611 11.081509,0.04611 0,0 0.737743,0.199805 0.707004,0.922178 -0.03074,0.722373 -0.03074,7.25447 -0.03074,7.25447 0,0 -0.353502,0.691631 -1.137354,0.829958 -0.783851,0.138327 -3.734821,0.41498 -5.102719,0.384241 -1.367899,-0.03074 -4.472565,-0.03074 -5.225677,-0.399611 -0.753113,-0.368869 -0.87607,-0.399608 -0.937549,-0.876067 -0.06148,-0.476459 -0.04611,-2.858754 -0.04611,-2.858754 z"
           id="path998" /><path
           style="fill:none;stroke:#000000;stroke-width:0.264583px;stroke-linecap:butt;stroke-linejoin:miter;stroke-opacity:1"
           d="m 27.505665,34.280096 1.410867,-1.55735"
           id="path1000" /><path
           style="fill:none;stroke:#000000;stroke-width:0.264583px;stroke-linecap:butt;stroke-linejoin:miter;stroke-opacity:1"
           d="M 42.306991,34.310201 40.896764,32.704235"
           id="path1002" /></g><text
         xml:space="preserve"
         style="font-size:3.88056px;line-height:1.75;font-family:sans-serif;stroke-width:0.264583"
         x="68.054344"
         y="29.225256"
         id="text1008"><tspan
           sodipodi:role="line"
           id="tspan1006"
           style="font-style:normal;font-variant:normal;font-weight:bold;font-stretch:normal;font-size:4.23333px;font-family:Calibri;-inkscape-font-specification:'Calibri, Bold';font-variant-ligatures:normal;font-variant-caps:normal;font-variant-numeric:normal;font-variant-east-asian:normal;stroke-width:0.264583"
           x="68.054344"
           y="29.225256">Shift</tspan></text></g></g></svg>
